<svg xmlns="http://www.w3.org/2000/svg" style="display: none;">
  <!-- SOFA 3 PLAZAS -->
  <symbol id="sofa" viewBox="0 0 120 50">
    <rect x="2" y="8" width="116" height="40" rx="4" fill="#8B4513" stroke="#5D3A1A" stroke-width="2"/>
    <rect x="6" y="12" width="26" height="32" rx="3" fill="#A0522D"/>
    <rect x="36" y="12" width="48" height="32" rx="3" fill="#A0522D"/>
    <rect x="88" y="12" width="26" height="32" rx="3" fill="#A0522D"/>
    <rect x="2" y="2" width="116" height="10" rx="3" fill="#6B3E1E"/>
  </symbol>

  <!-- SILLON -->
  <symbol id="armchair" viewBox="0 0 50 50">
    <rect x="2" y="8" width="46" height="40" rx="4" fill="#8B4513" stroke="#5D3A1A" stroke-width="2"/>
    <rect x="8" y="12" width="34" height="32" rx="3" fill="#A0522D"/>
    <rect x="2" y="2" width="46" height="10" rx="3" fill="#6B3E1E"/>
    <rect x="0" y="10" width="6" height="30" rx="2" fill="#6B3E1E"/>
    <rect x="44" y="10" width="6" height="30" rx="2" fill="#6B3E1E"/>
  </symbol>

  <!-- MESA DE CENTRO -->
  <symbol id="coffeeTable" viewBox="0 0 60 40">
    <rect x="2" y="2" width="56" height="36" rx="2" fill="#DEB887" stroke="#8B4513" stroke-width="2"/>
    <rect x="6" y="6" width="48" height="28" rx="1" fill="#D2B48C"/>
  </symbol>

  <!-- TV -->
  <symbol id="tv" viewBox="0 0 80 15">
    <rect x="0" y="0" width="80" height="15" rx="1" fill="#1a1a1a" stroke="#333" stroke-width="1"/>
    <rect x="2" y="2" width="76" height="11" fill="#2a2a2a"/>
    <rect x="35" y="13" width="10" height="2" fill="#333"/>
  </symbol>

  <!-- LAMPARA -->
  <symbol id="lamp" viewBox="0 0 20 20">
    <circle cx="10" cy="10" r="9" fill="#FFD700" stroke="#DAA520" stroke-width="1"/>
    <circle cx="10" cy="10" r="5" fill="#FFEC8B"/>
    <circle cx="10" cy="10" r="2" fill="#FFF8DC"/>
  </symbol>

  <!-- LIBRERO -->
  <symbol id="bookshelf" viewBox="0 0 80 25">
    <rect x="0" y="0" width="80" height="25" fill="#8B4513" stroke="#5D3A1A" stroke-width="1"/>
    <rect x="2" y="2" width="18" height="21" fill="#654321"/>
    <rect x="22" y="2" width="14" height="21" fill="#8B0000"/>
    <rect x="38" y="2" width="10" height="21" fill="#006400"/>
    <rect x="50" y="2" width="12" height="21" fill="#00008B"/>
    <rect x="64" y="2" width="14" height="21" fill="#4B0082"/>
  </symbol>

  <!-- CAMA INDIVIDUAL -->
  <symbol id="bedSingle" viewBox="0 0 60 120">
    <rect x="0" y="0" width="60" height="120" rx="3" fill="#4169E1" stroke="#2F4F8F" stroke-width="2"/>
    <rect x="4" y="4" width="52" height="30" rx="2" fill="#87CEEB"/>
    <rect x="4" y="38" width="52" height="78" rx="2" fill="#6495ED"/>
    <ellipse cx="30" cy="19" rx="20" ry="10" fill="#B0C4DE"/>
  </symbol>

  <!-- CAMA DOBLE -->
  <symbol id="bedDouble" viewBox="0 0 100 120">
    <rect x="0" y="0" width="100" height="120" rx="3" fill="#4169E1" stroke="#2F4F8F" stroke-width="2"/>
    <rect x="4" y="4" width="92" height="30" rx="2" fill="#87CEEB"/>
    <rect x="4" y="38" width="92" height="78" rx="2" fill="#6495ED"/>
    <ellipse cx="30" cy="19" rx="18" ry="10" fill="#B0C4DE"/>
    <ellipse cx="70" cy="19" rx="18" ry="10" fill="#B0C4DE"/>
  </symbol>

  <!-- ARMARIO -->
  <symbol id="wardrobe" viewBox="0 0 100 40">
    <rect x="0" y="0" width="100" height="40" fill="#8B4513" stroke="#5D3A1A" stroke-width="2"/>
    <line x1="50" y1="0" x2="50" y2="40" stroke="#5D3A1A" stroke-width="2"/>
    <circle cx="45" cy="20" r="2" fill="#DAA520"/>
    <circle cx="55" cy="20" r="2" fill="#DAA520"/>
  </symbol>

  <!-- MESA DE NOCHE -->
  <symbol id="nightstand" viewBox="0 0 30 30">
    <rect x="0" y="0" width="30" height="30" fill="#DEB887" stroke="#8B4513" stroke-width="1"/>
    <line x1="0" y1="15" x2="30" y2="15" stroke="#8B4513" stroke-width="1"/>
    <circle cx="15" cy="8" r="2" fill="#DAA520"/>
    <circle cx="15" cy="23" r="2" fill="#DAA520"/>
  </symbol>

  <!-- MESA DE COMEDOR -->
  <symbol id="diningTable" viewBox="0 0 80 50">
    <rect x="5" y="5" width="70" height="40" rx="3" fill="#DEB887" stroke="#8B4513" stroke-width="2"/>
    <rect x="8" y="8" width="64" height="34" rx="2" fill="#D2B48C"/>
  </symbol>

  <!-- SILLA -->
  <symbol id="chair" viewBox="0 0 25 25">
    <rect x="2" y="10" width="21" height="15" rx="2" fill="#8B4513" stroke="#5D3A1A" stroke-width="1"/>
    <rect x="4" y="0" width="17" height="12" rx="2" fill="#A0522D"/>
  </symbol>

  <!-- REFRIGERADOR -->
  <symbol id="fridge" viewBox="0 0 50 45">
    <rect x="0" y="0" width="50" height="45" rx="2" fill="#E8E8E8" stroke="#B0B0B0" stroke-width="2"/>
    <line x1="0" y1="15" x2="50" y2="15" stroke="#B0B0B0" stroke-width="1"/>
    <rect x="42" y="5" width="3" height="6" rx="1" fill="#808080"/>
    <rect x="42" y="20" width="3" height="10" rx="1" fill="#808080"/>
  </symbol>

  <!-- ESTUFA -->
  <symbol id="stove" viewBox="0 0 40 40">
    <rect x="0" y="0" width="40" height="40" fill="#2F2F2F" stroke="#1a1a1a" stroke-width="2"/>
    <circle cx="12" cy="12" r="6" fill="none" stroke="#4a4a4a" stroke-width="2"/>
    <circle cx="28" cy="12" r="6" fill="none" stroke="#4a4a4a" stroke-width="2"/>
    <circle cx="12" cy="28" r="6" fill="none" stroke="#4a4a4a" stroke-width="2"/>
    <circle cx="28" cy="28" r="6" fill="none" stroke="#4a4a4a" stroke-width="2"/>
  </symbol>

  <!-- FREGADERO -->
  <symbol id="sink" viewBox="0 0 50 35">
    <rect x="0" y="0" width="50" height="35" rx="3" fill="#E0E0E0" stroke="#B0B0B0" stroke-width="2"/>
    <ellipse cx="25" cy="17" rx="18" ry="12" fill="#C0C0C0" stroke="#909090" stroke-width="1"/>
    <circle cx="25" cy="20" r="3" fill="#808080"/>
    <rect x="22" y="3" width="6" height="8" rx="2" fill="#A0A0A0"/>
  </symbol>

  <!-- ENCIMERA -->
  <symbol id="counter" viewBox="0 0 120 40">
    <rect x="0" y="0" width="120" height="40" fill="#D2691E" stroke="#8B4513" stroke-width="2"/>
    <rect x="3" y="3" width="114" height="34" fill="#DEB887"/>
  </symbol>

  <!-- INODORO -->
  <symbol id="toilet" viewBox="0 0 30 40">
    <ellipse cx="15" cy="28" rx="13" ry="10" fill="#FFFFFF" stroke="#CCCCCC" stroke-width="2"/>
    <rect x="5" y="5" width="20" height="18" rx="3" fill="#FFFFFF" stroke="#CCCCCC" stroke-width="2"/>
    <ellipse cx="15" cy="28" rx="8" ry="6" fill="#E8E8E8"/>
  </symbol>

  <!-- BAÑERA -->
  <symbol id="bathtub" viewBox="0 0 100 50">
    <rect x="0" y="0" width="100" height="50" rx="5" fill="#FFFFFF" stroke="#CCCCCC" stroke-width="2"/>
    <rect x="5" y="5" width="90" height="40" rx="4" fill="#E0FFFF" stroke="#B0E0E6" stroke-width="1"/>
    <circle cx="15" cy="12" r="4" fill="#C0C0C0"/>
    <rect x="13" y="12" width="4" height="10" fill="#C0C0C0"/>
  </symbol>

  <!-- DUCHA -->
  <symbol id="shower" viewBox="0 0 60 60">
    <rect x="0" y="0" width="60" height="60" fill="#E0FFFF" stroke="#4682B4" stroke-width="2"/>
    <rect x="3" y="3" width="54" height="54" fill="#F0FFFF"/>
    <circle cx="30" cy="10" r="6" fill="none" stroke="#4682B4" stroke-width="1"/>
    <line x1="30" y1="16" x2="30" y2="55" stroke="#87CEEB" stroke-width="1" stroke-dasharray="3,2"/>
  </symbol>

  <!-- LAVADORA -->
  <symbol id="washingMachine" viewBox="0 0 40 40">
    <rect x="0" y="0" width="40" height="40" rx="2" fill="#E8E8E8" stroke="#B0B0B0" stroke-width="2"/>
    <circle cx="20" cy="24" r="12" fill="#FFFFFF" stroke="#909090" stroke-width="2"/>
    <circle cx="20" cy="24" r="8" fill="#87CEEB"/>
    <rect x="5" y="3" width="30" height="8" fill="#D0D0D0"/>
    <circle cx="10" cy="7" r="2" fill="#4CAF50"/>
  </symbol>

  <!-- AUTO -->
  <symbol id="car" viewBox="0 0 110 50">
    <rect x="5" y="15" width="100" height="30" rx="3" fill="#4682B4" stroke="#2F4F6F" stroke-width="2"/>
    <rect x="15" y="5" width="35" height="15" rx="2" fill="#87CEEB" stroke="#4682B4" stroke-width="1"/>
    <rect x="55" y="5" width="35" height="15" rx="2" fill="#87CEEB" stroke="#4682B4" stroke-width="1"/>
    <circle cx="25" cy="45" r="8" fill="#333" stroke="#222" stroke-width="2"/>
    <circle cx="85" cy="45" r="8" fill="#333" stroke="#222" stroke-width="2"/>
    <circle cx="25" cy="45" r="4" fill="#666"/>
    <circle cx="85" cy="45" r="4" fill="#666"/>
  </symbol>

  <!-- ARBOL -->
  <symbol id="tree" viewBox="0 0 40 40">
    <circle cx="20" cy="15" r="14" fill="#228B22"/>
    <circle cx="12" cy="20" r="10" fill="#2E8B2E"/>
    <circle cx="28" cy="20" r="10" fill="#2E8B2E"/>
    <circle cx="20" cy="12" r="8" fill="#32CD32"/>
    <rect x="17" y="28" width="6" height="12" fill="#8B4513"/>
  </symbol>

  <!-- PUERTA -->
  <symbol id="door" viewBox="0 0 80 14">
    <rect x="0" y="0" width="80" height="14" fill="#FFF8DC" stroke="#8B4513" stroke-width="2"/>
    <circle cx="70" cy="7" r="2" fill="#DAA520"/>
    <path d="M 0 7 Q 40 -20 60 7" fill="none" stroke="#8B4513" stroke-width="1" stroke-dasharray="4,2"/>
  </symbol>

  <!-- VENTANA -->
  <symbol id="window" viewBox="0 0 100 14">
    <rect x="0" y="0" width="100" height="14" fill="#87CEEB" stroke="#4682B4" stroke-width="2"/>
    <line x1="33" y1="0" x2="33" y2="14" stroke="#4682B4" stroke-width="1"/>
    <line x1="66" y1="0" x2="66" y2="14" stroke="#4682B4" stroke-width="1"/>
    <line x1="0" y1="7" x2="100" y2="7" stroke="#4682B4" stroke-width="1"/>
  </symbol>

  <!-- PLANTA -->
  <symbol id="plant" viewBox="0 0 30 30">
    <circle cx="15" cy="20" r="9" fill="#32CD32"/>
    <circle cx="10" cy="15" r="6" fill="#228B22"/>
    <circle cx="20" cy="15" r="6" fill="#228B22"/>
    <circle cx="15" cy="12" r="5" fill="#3CB371"/>
    <rect x="12" y="25" width="6" height="5" rx="1" fill="#8B4513"/>
  </symbol>
</svg>
